2.2Hzhigh3min_grf.mot
version=1
nRows=27
nColumns 19
inDegrees=yes
endheader
time	1_ground_force_vx	1_ground_force_vy	1_ground_force_vz	1_ground_force_px	1_ground_force_py	1_ground_force_pz	1_ground_torque_x	1_ground_torque_y	1_ground_torque_z	2_ground_force_vx	2_ground_force_vy	2_ground_force_vz	2_ground_force_px	2_ground_force_py	2_ground_force_pz	2_ground_torque_x	2_ground_torque_y	2_ground_torque_z
            3.751500	           16.525703	          518.021549	          -24.646402	           -0.197852	            0.006376	           -0.439497	           -0.006682	           -0.209454	            0.009965	            0.495943	          356.855906	            9.672754	           -0.175301	            0.005683	           -0.650733	           -0.000918	           -0.660392	           -0.017900
            3.752000	           16.298763	          512.431137	          -24.165380	           -0.198142	            0.006374	           -0.438974	           -0.006876	           -0.216174	            0.010194	            0.559552	          352.251203	            9.984804	           -0.175257	            0.005683	           -0.650581	           -0.000898	           -0.565087	           -0.016018
            3.752500	           16.621580	          505.039293	          -23.968588	           -0.197842	            0.006374	           -0.438959	           -0.001825	           -0.055456	            0.002632	            1.138182	          347.651039	            9.545786	           -0.175484	            0.005683	           -0.650805	           -0.001682	           -0.513845	           -0.014109
            3.753000	           16.898508	          497.287105	          -23.819085	           -0.197819	            0.006376	           -0.439423	            0.001875	            0.055180	           -0.002643	            0.967836	          342.864362	            9.012573	           -0.175410	            0.005684	           -0.651045	           -0.001353	           -0.479411	           -0.012602
            3.753500	           16.763062	          490.255371	          -23.527898	           -0.197665	            0.006376	           -0.439512	            0.001644	            0.048083	           -0.002308	            1.125666	          338.077028	            8.995430	           -0.175167	            0.005685	           -0.651180	           -0.001360	           -0.408351	           -0.010865
            3.754000	           16.398854	          483.222746	          -23.052718	           -0.197896	            0.006376	           -0.439559	           -0.004533	           -0.133567	            0.006372	            1.478788	          331.081230	            8.782609	           -0.175092	            0.005679	           -0.649483	           -0.002326	           -0.520686	           -0.013812
            3.754500	           16.355071	          476.911896	          -22.712810	           -0.197873	            0.006376	           -0.439415	           -0.008011	           -0.233596	            0.011125	            1.630575	          327.951726	            8.630595	           -0.175526	            0.005682	           -0.650703	           -0.002428	           -0.488265	           -0.012850
            3.755000	           16.495315	          470.780137	          -22.097450	           -0.197566	            0.006374	           -0.439053	           -0.011823	           -0.337443	            0.015839	            2.027265	          321.876527	            8.514897	           -0.174925	            0.005682	           -0.650109	           -0.002989	           -0.474560	           -0.012554
            3.755500	           16.360451	          463.026494	          -21.625931	           -0.197541	            0.006377	           -0.439609	           -0.009915	           -0.280608	            0.013106	            2.226587	          318.562823	            8.409134	           -0.175458	            0.005684	           -0.651028	           -0.002874	           -0.411139	           -0.010853
            3.756000	           16.500536	          455.273161	          -21.200950	           -0.197358	            0.006377	           -0.439730	           -0.006387	           -0.176225	            0.008206	            2.527584	          313.039769	            8.295446	           -0.175126	            0.005683	           -0.650443	           -0.002402	           -0.297434	           -0.007882
            3.756500	           16.364106	          449.864967	          -21.177942	           -0.197512	            0.006375	           -0.439310	           -0.003696	           -0.101617	            0.004784	            2.735004	          307.515311	            8.463367	           -0.174962	            0.005682	           -0.649959	           -0.002105	           -0.236633	           -0.006513
            3.757000	           16.274826	          442.292022	          -20.797476	           -0.197247	            0.006378	           -0.439835	           -0.004059	           -0.110314	            0.005187	            2.750893	          303.096253	            8.306813	           -0.175239	            0.005684	           -0.650941	           -0.003063	           -0.337446	           -0.009248
            3.757500	           16.323222	          435.800107	          -20.275145	           -0.197191	            0.006379	           -0.440087	           -0.008500	           -0.226924	            0.010557	            2.673062	          298.677024	            8.103371	           -0.175289	            0.005682	           -0.650370	           -0.001885	           -0.210637	           -0.005715
            3.758000	           16.279784	          428.227171	          -19.894792	           -0.197232	            0.006380	           -0.440306	           -0.014887	           -0.391604	            0.018193	            2.881750	          292.784787	            8.129194	           -0.174782	            0.005682	           -0.649763	           -0.002652	           -0.269466	           -0.007482
            3.758500	           16.144155	          422.817601	          -19.550793	           -0.197321	            0.006378	           -0.439934	           -0.016987	           -0.444891	            0.020571	            3.126346	          289.841603	            7.461588	           -0.174721	            0.005686	           -0.650810	           -0.002809	           -0.260463	           -0.006705
            3.759000	           16.237595	          416.327071	          -19.349567	           -0.197367	            0.006378	           -0.440031	           -0.013022	           -0.333890	            0.015518	            3.611899	          285.057295	            6.928096	           -0.175013	            0.005682	           -0.650047	           -0.003272	           -0.258216	           -0.006276
            3.759500	           16.239969	          408.934379	          -18.968556	           -0.197438	            0.006379	           -0.440199	           -0.009562	           -0.240785	            0.011169	            3.862743	          280.454546	            6.864642	           -0.175219	            0.005683	           -0.650580	           -0.002995	           -0.217455	           -0.005323
            3.760000	           16.196105	          402.443429	          -18.675277	           -0.197136	            0.006379	           -0.440207	           -0.007948	           -0.197491	            0.009165	            4.159149	          276.220036	            6.896338	           -0.175026	            0.005683	           -0.650291	           -0.003445	           -0.228793	           -0.005712
            3.760500	           16.243833	          396.493325	          -18.379907	           -0.197157	            0.006377	           -0.439592	           -0.009553	           -0.233172	            0.010809	            4.223259	          271.432470	            6.832306	           -0.174640	            0.005683	           -0.649895	           -0.003879	           -0.249317	           -0.006276
            3.761000	           16.612151	          390.363577	          -18.223675	           -0.196942	            0.006378	           -0.439977	           -0.012964	           -0.304630	            0.014221	            4.197177	          265.722356	            7.187382	           -0.174473	            0.005682	           -0.649687	           -0.002416	           -0.152952	           -0.004137
            3.761500	           16.248075	          382.609889	          -17.751587	           -0.196756	            0.006381	           -0.440544	           -0.019896	           -0.468521	            0.021738	            4.207749	          262.776485	            7.036085	           -0.174904	            0.005685	           -0.650983	           -0.002212	           -0.138123	           -0.003698
            3.762000	           16.067398	          377.198934	          -17.086482	           -0.197055	            0.006379	           -0.440196	           -0.023087	           -0.541988	            0.024551	            4.322593	          256.885081	            6.733451	           -0.174542	            0.005681	           -0.649278	           -0.002363	           -0.140416	           -0.003681
            3.762500	           15.932010	          371.068105	          -16.699718	           -0.197061	            0.006378	           -0.439955	           -0.018717	           -0.435935	            0.019619	            4.524409	          252.836184	            6.249635	           -0.174744	            0.005679	           -0.649066	           -0.000949	           -0.053042	           -0.001311
            3.763000	           15.888197	          364.937491	          -16.359038	           -0.197008	            0.006379	           -0.440176	           -0.014629	           -0.336012	            0.015062	            4.724271	          249.339404	            5.861646	           -0.174994	            0.005682	           -0.650094	           -0.001625	           -0.085774	           -0.002016
            3.763500	           16.165565	          357.905444	          -15.977163	           -0.196816	            0.006379	           -0.440178	           -0.008589	           -0.190156	            0.008489	            5.397368	          244.554570	            5.656571	           -0.174485	            0.005682	           -0.649504	           -0.003356	           -0.152044	           -0.003517
            3.764000	           15.937757	          352.676878	          -15.815586	           -0.197010	            0.006379	           -0.440200	           -0.014217	           -0.314589	            0.014108	            5.410825	          240.870265	            6.018855	           -0.174693	            0.005682	           -0.649889	           -0.004172	           -0.185739	           -0.004641
            3.764500	           16.305602	          347.268782	          -15.793829	           -0.197172	            0.006378	           -0.439904	           -0.020284	           -0.432001	            0.019647	            5.567366	          236.450878	            6.096882	           -0.174650	            0.005683	           -0.650034	           -0.005272	           -0.223922	           -0.005774
